<svg xmlns="http://www.w3.org/2000/svg" width="1044" height="581" viewBox="0 0 1044 581">
<g>
<path d="M 605.46 181.50 L 605.50 277.50 L 566.50 277.68 C526.48,277.86 520.78,277.44 511.79,273.69 C506.24,271.36 499.20,264.31 496.45,258.30 C494.32,253.65 494.00,251.49 494.00,241.96 C494.00,235.92 494.45,230.08 495.00,228.99 L 497.00 225.01 C497.55,223.92 498.00,222.43 498.00,221.69 C498.00,219.25 505.16,211.95 509.93,209.54 C517.27,205.82 524.47,205.05 553.79,204.85 C584.90,204.64 585.09,204.60 583.19,198.26 C582.54,196.06 581.97,192.52 581.93,190.38 C581.82,184.77 579.16,180.87 573.46,178.00 L 568.50 175.50 L 533.25 175.17 L 498.00 174.84 L 498.00 166.44 C498.00,158.41 498.11,158.01 500.39,157.44 C501.71,157.11 520.50,157.02 542.14,157.24 C576.15,157.59 582.23,157.88 586.84,159.39 C593.85,161.67 599.98,167.79 603.10,175.59 ZM 836.35 268.74 C835.12,269.63 829.89,270.00 818.42,270.00 L 802.22 270.00 L 801.46 266.25 C800.43,261.15 800.44,219.09 801.47,194.16 C802.60,166.60 801.13,150.23 796.68,141.00 C794.95,137.43 793.31,134.27 793.02,134.00 C791.86,132.89 790.00,128.94 790.00,127.60 C790.00,126.81 789.66,126.02 789.25,125.83 C788.57,125.53 787.38,123.26 782.56,113.00 C781.66,111.07 779.82,107.70 778.48,105.50 C777.14,103.30 769.27,88.00 760.99,71.50 C752.72,55.00 745.32,40.38 744.55,39.00 C742.18,34.76 731.29,11.63 730.59,9.33 C730.09,7.73 730.39,7.04 731.71,6.69 C735.11,5.80 764.29,6.08 766.04,7.02 C768.97,8.59 775.68,21.24 807.27,84.74 L 837.50 145.50 L 837.79 206.49 C838.05,263.32 837.96,267.56 836.35,268.74 ZM 371.79 267.85 L 371.50 277.50 L 338.50 277.63 C320.35,277.70 302.66,277.39 299.19,276.93 C281.64,274.64 268.98,267.89 260.27,256.20 C258.75,254.16 257.22,252.27 256.87,252.00 C255.60,251.00 249.39,238.40 248.26,234.50 C245.94,226.52 244.35,216.79 243.39,204.67 C242.69,195.76 244.17,176.23 246.15,168.50 C246.71,166.30 247.63,162.70 248.20,160.50 C251.04,149.47 261.53,133.62 271.08,125.94 C285.44,114.39 297.81,112.00 343.26,112.00 L 372.07 112.00 L 371.79 121.75 L 371.50 131.50 L 338.00 132.09 C319.50,132.41 303.15,133.13 301.49,133.70 C283.88,139.69 274.22,153.32 272.34,174.85 C271.83,180.60 272.00,182.38 273.10,183.08 C273.87,183.57 296.45,183.98 323.28,183.98 L 372.07 184.00 L 371.78 194.25 L 371.50 204.50 L 272.00 205.02 L 272.00 210.61 C272.00,226.50 282.19,245.52 293.88,251.44 C304.77,256.95 307.27,257.29 340.79,257.76 L 372.07 258.19 ZM 424.76 226.75 L 424.50 277.50 L 413.24 277.78 L 401.98 278.07 L 402.50 157.50 L 421.50 157.20 C453.45,156.69 464.77,159.04 471.87,167.66 C477.04,173.93 478.24,178.84 478.75,195.75 L 479.21 211.00 L 469.23 211.00 C458.84,211.00 456.11,210.02 458.04,206.97 C459.29,205.00 459.26,196.28 458.00,195.50 C457.45,195.16 456.98,193.45 456.95,191.69 C456.89,187.58 454.18,182.18 451.00,179.84 C448.50,178.00 437.60,176.09 429.26,176.03 L 425.02 176.00 ZM 537.00 259.04 C548.30,260.13 580.61,259.57 582.19,258.26 C584.18,256.61 584.70,228.10 582.81,225.06 C581.56,223.07 580.69,223.00 557.01,223.01 C542.30,223.01 530.92,223.45 528.55,224.11 C526.37,224.71 523.15,226.65 521.39,228.41 C518.81,230.99 518.05,232.75 517.46,237.48 C515.83,250.51 522.27,257.62 537.00,259.04 ZM 776.00 234.00 L 776.00 271.00 L 760.06 271.00 C751.29,271.00 743.94,270.66 743.71,270.25 C743.49,269.84 743.21,261.89 743.09,252.60 C742.92,239.54 743.17,235.51 744.19,234.86 C744.91,234.41 752.36,234.02 760.75,234.02 ZM 730.04 124.21 L 729.50 160.50 L 698.00 161.05 L 697.85 144.03 C697.77,134.66 697.66,126.44 697.60,125.75 C697.52,124.80 701.44,124.46 713.77,124.35 ZM 730.05 70.95 L 729.50 107.50 L 714.32 107.78 C705.98,107.93 698.91,107.66 698.62,107.19 C698.32,106.72 698.02,98.49 697.95,88.91 L 697.82 71.50 L 713.93 71.23 ZM 774.77 197.75 L 775.05 216.00 L 742.95 216.00 L 743.23 197.75 L 743.50 179.50 L 774.50 179.50 ZM 776.50 125.50 L 776.50 161.50 L 761.32 161.78 C752.73,161.93 745.90,161.65 745.58,161.12 C745.26,160.61 744.91,152.39 744.79,142.85 L 744.58 125.50 ZM 729.50 179.75 L 729.50 215.50 L 698.00 216.05 L 698.00 179.33 L 713.75 179.54 Z" fill="rgb(4,7,8)"/>
<path d="M 454.51 570.14 C449.10,572.59 438.85,572.57 433.38,570.09 C429.11,568.15 424.00,562.50 424.00,559.71 C424.00,558.84 423.55,557.84 423.00,557.50 C422.44,557.16 422.00,552.51 422.00,547.00 C422.00,541.49 422.44,536.84 423.00,536.50 C423.55,536.16 424.00,535.00 424.00,533.93 C424.00,529.39 429.05,523.53 434.91,521.27 C440.59,519.08 451.99,519.09 457.19,521.29 C469.13,526.34 471.92,553.05 461.72,564.67 C459.96,566.67 456.71,569.13 454.51,570.14 ZM 191.00 568.17 C185.35,570.91 174.17,572.28 167.51,571.04 C164.76,570.53 164.46,570.05 163.70,564.99 C163.24,561.97 163.01,551.35 163.19,541.40 C163.44,527.33 163.83,522.91 164.97,521.53 C166.26,519.98 167.81,519.82 177.47,520.21 C189.36,520.68 192.51,521.71 197.17,526.66 C201.74,531.51 203.24,536.86 202.85,546.81 C202.54,554.54 202.12,556.28 199.50,560.58 C197.19,564.37 195.24,566.11 191.00,568.17 ZM 437.53 565.31 C440.99,567.18 446.67,567.45 450.68,565.94 C454.40,564.53 459.00,560.07 459.00,557.87 C459.00,556.91 459.45,555.84 460.00,555.50 C461.47,554.59 461.26,536.42 459.75,533.81 C455.84,527.05 451.03,524.00 444.27,524.00 C438.80,524.00 433.90,526.99 431.00,532.10 C428.82,535.94 428.51,537.65 428.59,545.50 C428.70,557.09 430.76,561.65 437.53,565.31 ZM 597.75 561.99 C597.55,569.54 597.19,571.52 596.00,571.67 C592.09,572.18 592.00,571.58 592.00,546.54 C592.00,526.22 592.24,522.04 593.49,521.01 C595.46,519.38 613.41,520.15 617.33,522.03 C621.03,523.81 623.00,527.81 623.00,533.55 C623.00,537.46 622.49,538.71 619.75,541.44 C617.96,543.22 615.84,544.89 615.04,545.16 C613.91,545.53 614.19,546.29 616.28,548.54 C618.87,551.34 626.00,567.44 626.00,570.51 C626.00,571.43 625.06,572.00 623.55,572.00 C621.67,572.00 620.70,571.11 619.44,568.25 C612.12,551.65 609.04,548.01 602.27,548.00 C598.35,548.00 598.10,548.78 597.75,561.99 ZM 495.21 562.27 C494.94,571.67 494.85,572.00 492.63,572.00 C491.37,572.00 490.03,571.70 489.67,571.33 C489.30,570.97 489.00,560.01 489.00,546.99 C489.00,545.84 489.00,544.74 489.00,543.68 C488.99,528.40 488.98,522.96 491.58,521.04 C493.02,519.97 495.25,519.98 498.72,520.00 C499.15,520.00 499.61,520.01 500.08,520.01 C509.69,520.01 514.28,521.35 517.40,525.06 C524.48,533.48 519.32,548.68 508.77,550.45 C506.97,550.75 503.25,551.35 500.50,551.77 L 495.50 552.54 ZM 823.79 561.82 C823.52,570.69 823.33,571.52 821.46,571.79 C820.34,571.95 819.10,571.77 818.71,571.38 C817.41,570.07 817.87,522.53 819.20,521.20 C820.67,519.73 834.99,519.59 840.07,521.00 C849.89,523.73 852.76,537.18 845.40,545.94 C842.66,549.20 838.79,550.58 829.79,551.53 L 824.07 552.14 ZM 173.00 566.14 C176.48,567.16 183.71,566.18 188.66,564.01 C194.74,561.35 196.48,557.08 196.31,545.17 C196.19,536.39 195.99,535.56 193.25,532.15 C189.09,526.96 184.76,525.10 176.73,525.05 L 169.96 525.00 L 170.23 545.21 L 170.50 565.41 ZM 295.08 569.86 C293.71,572.40 288.89,572.78 286.99,570.49 C285.91,569.19 281.56,557.48 276.40,542.00 C275.57,539.53 274.50,536.60 274.02,535.50 C272.80,532.75 269.00,521.52 269.00,520.68 C269.00,520.31 270.51,520.00 272.36,520.00 L 275.72 520.00 L 281.94 538.25 C285.37,548.29 288.76,558.08 289.49,560.00 L 290.82 563.50 L 291.97 560.52 C292.61,558.87 293.72,556.17 294.45,554.52 C295.17,552.86 296.31,549.92 296.98,548.00 C298.48,543.69 299.95,540.05 301.12,537.76 C301.60,536.81 302.00,535.15 302.00,534.07 C302.00,533.00 302.45,531.84 303.00,531.50 C303.55,531.16 304.00,529.58 304.00,527.99 C304.00,522.12 308.44,517.30 311.88,519.42 C312.47,519.79 310.65,526.33 307.34,535.77 C304.30,544.42 300.55,555.15 299.02,559.61 C297.48,564.07 295.71,568.68 295.08,569.86 ZM 251.82 571.17 C248.63,571.59 230.20,571.45 227.49,570.99 L 224.50 570.48 L 224.02 521.09 L 227.26 520.49 C229.04,520.17 235.45,520.03 241.50,520.20 C251.73,520.48 252.50,520.64 252.50,522.50 C252.50,524.36 251.74,524.52 241.75,524.78 L 231.00 525.07 L 231.00 540.88 L 235.25 541.44 C237.59,541.75 241.75,542.12 244.50,542.25 C248.75,542.46 249.50,542.80 249.50,544.50 C249.50,546.34 248.74,546.52 240.21,546.79 L 230.93 547.08 L 231.21 556.29 L 231.50 565.50 L 242.00 566.00 C251.95,566.47 252.52,566.62 252.82,568.75 C253.00,570.05 252.58,571.07 251.82,571.17 ZM 358.25 571.10 C349.83,571.60 333.70,571.43 332.74,570.84 C331.86,570.30 331.46,563.62 331.27,546.61 C331.05,526.24 331.23,522.91 332.61,521.53 C333.93,520.21 336.36,519.99 346.85,520.22 C358.74,520.48 359.50,520.62 359.50,522.50 C359.50,524.36 358.74,524.52 348.75,524.78 L 338.00 525.07 L 338.00 540.88 L 342.25 541.44 C344.59,541.75 348.75,542.12 351.50,542.25 C355.75,542.46 356.50,542.80 356.50,544.50 C356.50,546.34 355.74,546.52 347.21,546.79 L 337.93 547.08 L 338.50 565.50 L 349.25 565.78 C359.93,566.07 360.00,566.08 360.00,568.53 C360.00,570.18 359.42,571.03 358.25,571.10 ZM 569.25 571.12 C567.35,571.43 546.25,571.49 544.25,571.19 L 542.00 570.86 L 542.00 546.04 C542.00,524.32 542.20,521.14 543.58,520.61 C544.45,520.27 550.78,520.00 557.65,520.00 C570.03,520.00 570.14,520.02 569.82,522.25 C569.51,524.40 569.04,524.51 558.75,524.78 L 548.00 525.07 L 548.00 540.88 L 552.25 541.44 C554.59,541.75 558.75,542.12 561.50,542.25 C565.83,542.47 566.54,542.80 566.82,544.75 C567.13,546.95 566.92,547.00 557.57,547.00 L 548.00 547.00 L 548.00 555.94 C548.00,562.00 548.40,565.14 549.25,565.69 C549.94,566.14 553.88,566.40 558.00,566.27 C567.66,565.98 570.00,566.52 570.00,569.02 C570.00,570.11 569.66,571.05 569.25,571.12 ZM 665.08 569.96 C656.91,574.13 642.00,571.49 642.00,565.88 C642.00,563.54 645.29,563.39 650.35,565.50 C658.66,568.97 667.00,565.43 667.00,558.42 C667.00,553.75 664.68,551.34 656.50,547.53 C652.65,545.73 648.15,542.82 646.50,541.06 C643.91,538.31 643.51,537.12 643.55,532.48 C643.63,523.90 648.85,519.75 659.52,519.75 C666.92,519.75 670.00,521.16 670.00,524.54 C670.00,527.41 669.47,527.51 664.65,525.50 C656.51,522.10 650.00,524.48 650.00,530.87 C650.00,535.76 652.09,537.90 661.77,542.94 C670.61,547.54 673.00,550.57 673.00,557.15 C672.99,562.78 670.16,567.37 665.08,569.96 ZM 756.50 570.00 L 756.50 572.50 L 744.40 572.78 C734.97,573.00 732.04,572.75 731.13,571.66 C730.30,570.65 730.04,563.31 730.23,545.88 L 730.50 521.50 L 736.50 521.50 L 736.77 544.25 C736.80,546.97 736.81,549.38 736.82,551.51 C736.87,561.34 736.89,565.19 738.77,566.67 C739.99,567.62 741.98,567.57 745.25,567.50 C746.35,567.48 747.59,567.46 749.00,567.46 C756.32,567.50 756.50,567.56 756.50,570.00 ZM 407.25 571.14 C403.97,571.74 383.95,571.59 382.93,570.96 C381.92,570.33 381.71,566.36 381.98,553.33 C382.53,527.38 382.51,525.61 381.67,523.88 C380.71,521.89 383.52,518.76 385.87,519.21 C387.31,519.49 387.53,522.17 387.77,542.14 L 388.04 564.76 L 391.14 565.38 C392.85,565.72 397.34,566.00 401.12,566.00 C407.79,566.00 408.00,566.08 408.00,568.50 C408.00,569.88 407.66,571.06 407.25,571.14 ZM 800.50 570.00 L 800.50 572.50 L 787.75 572.78 C780.74,572.93 774.99,572.93 774.97,572.78 C774.95,572.63 774.90,561.03 774.86,547.00 L 774.78 521.50 L 777.37 521.19 L 779.96 520.87 L 780.23 543.69 L 780.50 566.50 L 790.50 567.00 C800.37,567.49 800.50,567.53 800.50,570.00 ZM 826.25 545.97 C831.69,548.16 838.93,546.37 841.11,542.30 C841.87,540.86 842.43,537.41 842.34,534.62 C842.11,527.36 839.20,525.00 830.44,525.00 L 824.00 525.00 L 824.00 535.03 C824.00,544.50 824.13,545.12 826.25,545.97 ZM 498.00 546.15 C502.28,547.41 508.29,546.10 511.25,543.26 C513.49,541.12 514.00,539.75 514.00,535.92 C514.00,532.10 513.45,530.62 511.10,528.11 C508.47,525.29 507.63,525.00 502.12,525.00 C494.89,525.00 494.75,525.25 495.20,537.46 C495.48,544.97 495.64,545.46 498.00,546.15 ZM 601.00 542.32 C603.50,543.36 610.81,542.35 613.49,540.60 C615.61,539.21 616.00,538.18 616.00,534.05 C616.00,527.37 613.11,525.00 604.97,525.00 C598.29,525.00 597.99,525.38 598.02,533.83 C598.03,539.81 598.56,541.31 601.00,542.32 ZM 802.22 269.98 C801.53,269.79 801.07,269.58 800.87,269.35 C798.94,267.02 798.42,228.26 799.98,202.69 C801.67,175.16 800.02,150.17 795.98,142.00 C794.49,138.98 790.45,130.88 787.01,124.00 C783.57,117.12 780.31,110.38 779.76,109.00 C779.21,107.62 778.27,105.60 777.66,104.50 C777.05,103.40 769.55,88.55 760.98,71.50 C752.40,54.45 744.89,39.60 744.27,38.50 C743.15,36.50 739.61,29.14 736.41,22.30 C739.66,29.23 743.30,36.76 744.55,39.00 C745.32,40.38 752.72,55.00 760.99,71.50 C769.27,88.00 777.14,103.30 778.48,105.50 C779.82,107.70 781.66,111.07 782.56,113.00 C787.38,123.26 788.57,125.53 789.25,125.83 C789.66,126.02 790.00,126.81 790.00,127.60 C790.00,128.94 791.86,132.89 793.02,134.00 C793.31,134.27 794.95,137.43 796.68,141.00 C801.13,150.23 802.60,166.60 801.47,194.16 C800.44,219.09 800.43,261.15 801.46,266.25 ZM 836.35 268.74 C836.97,268.28 837.37,267.37 837.60,263.12 C837.38,267.58 837.02,268.84 836.46,269.39 C834.28,271.58 808.78,271.76 802.27,270.00 L 818.42 270.00 C829.89,270.00 835.12,269.63 836.35,268.74 ZM 457.55 208.00 C457.18,206.10 456.97,202.85 456.95,198.55 C456.92,192.68 456.51,188.70 455.46,185.75 C456.36,187.73 456.92,189.84 456.95,191.69 C456.98,193.45 457.45,195.16 458.00,195.50 C459.26,196.28 459.29,205.00 458.04,206.97 C457.81,207.34 457.64,207.68 457.55,208.00 ZM 458.08 209.65 C458.83,210.21 460.29,210.57 462.58,210.78 C460.16,210.58 458.65,210.25 458.20,209.80 C458.16,209.76 458.12,209.71 458.08,209.65 Z" fill="rgb(106,106,107)"/>
<path d="M 825.42 440.07 C819.64,442.11 802.26,443.57 797.50,442.42 C788.61,440.27 785.82,439.33 781.00,436.88 C771.83,432.21 764.32,424.05 759.46,413.49 C755.78,405.51 755.23,404.03 754.61,400.50 C754.33,398.85 753.65,395.25 753.10,392.50 C751.75,385.64 751.75,354.49 753.10,347.89 C753.71,344.92 754.53,340.92 754.93,339.00 C755.58,335.86 756.34,333.89 760.33,325.00 C762.64,319.83 769.08,311.09 773.21,307.49 C784.62,297.55 804.89,293.54 821.67,297.90 C836.36,301.71 847.18,310.91 854.14,325.50 C860.85,339.56 861.50,343.50 861.50,370.00 C861.50,391.84 861.33,394.03 859.16,401.00 C852.74,421.54 841.69,434.35 825.42,440.07 ZM 532.94 441.10 C520.00,445.12 505.77,442.21 496.21,433.57 C493.95,431.53 490.73,426.96 488.91,423.21 C485.75,416.71 485.65,416.10 485.61,403.50 C485.57,390.51 485.57,390.50 489.28,382.83 C494.84,371.35 503.59,364.56 518.30,360.30 C525.04,358.34 528.53,358.00 541.61,358.00 L 557.00 358.00 L 557.00 346.20 C557.00,335.50 556.76,333.90 554.41,329.20 C551.42,323.20 545.28,317.51 540.83,316.62 C526.66,313.78 516.11,320.70 513.19,334.73 L 512.41 338.50 L 488.50 338.50 L 488.59 334.50 C488.64,332.30 489.54,327.59 490.59,324.04 C492.13,318.82 493.64,316.35 498.43,311.22 C501.70,307.72 506.13,303.95 508.29,302.85 C524.32,294.68 545.95,293.99 560.33,301.20 C565.16,303.62 575.24,313.42 577.48,317.86 C582.41,327.66 582.33,326.81 583.06,378.00 C583.49,408.59 584.16,428.16 584.88,431.00 C585.14,432.02 585.38,432.92 585.60,433.72 C586.37,436.55 586.79,438.13 586.20,439.00 C585.45,440.09 583.08,440.07 577.76,440.02 C576.55,440.01 575.20,440.00 573.68,440.00 L 560.31 440.00 L 558.50 431.35 L 556.68 422.70 L 551.59 428.25 C544.72,435.73 540.21,438.83 532.94,441.10 ZM 431.16 441.58 C403.64,446.89 380.68,436.39 369.16,413.24 C363.29,401.44 362.48,395.99 362.64,369.50 C362.77,346.74 362.84,346.10 366.63,333.00 C367.47,330.10 372.51,320.69 374.88,317.61 C382.34,307.89 394.82,299.47 405.26,297.09 C414.92,294.89 428.19,296.51 437.62,301.04 C444.50,304.35 453.02,313.22 456.80,321.00 C462.16,332.03 463.26,337.77 463.75,357.25 L 464.19 375.00 L 388.00 375.00 L 388.02 381.25 C388.06,395.11 393.32,409.44 400.88,416.27 C411.99,426.31 433.61,424.83 448.46,413.03 C450.54,411.38 452.65,410.28 453.14,410.59 C454.21,411.25 461.00,424.50 461.00,425.92 C461.00,427.38 449.07,435.61 443.43,438.04 C440.72,439.21 435.20,440.81 431.16,441.58 ZM 221.50 440.69 C216.46,442.10 195.21,443.32 191.50,442.42 C174.81,438.38 167.99,434.91 158.96,425.89 C149.77,416.70 144.12,404.14 142.02,388.24 C140.63,377.68 141.17,306.07 142.70,298.50 C143.92,292.48 146.37,285.10 149.18,279.00 C150.32,276.52 151.76,273.40 152.38,272.04 C154.72,266.92 164.94,257.28 171.75,253.77 C181.99,248.49 186.81,247.49 201.50,247.59 C216.36,247.70 224.00,249.30 233.39,254.26 C248.78,262.39 258.26,279.72 259.23,301.50 L 259.50 307.50 L 234.58 307.50 L 233.37 297.82 C231.47,282.70 227.24,275.27 217.62,270.20 C213.00,267.76 211.48,267.50 202.00,267.50 C192.54,267.50 191.00,267.77 186.41,270.19 C177.38,274.95 171.95,283.14 168.31,297.50 C166.75,303.63 166.53,309.51 166.51,345.00 C166.50,381.51 166.68,386.19 168.38,392.50 C172.03,406.08 178.22,414.97 187.44,419.83 C191.95,422.21 193.59,422.50 202.50,422.50 C215.39,422.50 220.36,420.70 226.35,413.85 C231.02,408.52 232.14,405.24 234.32,390.50 L 235.50 382.50 L 245.50 382.21 L 246.03 382.19 C254.41,381.95 257.73,381.85 258.92,383.39 C259.70,384.41 259.57,386.12 259.35,388.97 L 259.33 389.25 C258.57,399.03 255.36,410.66 251.53,417.51 C245.52,428.26 233.88,437.25 221.50,440.69 ZM 665.44 441.50 C647.22,445.35 634.88,441.49 627.24,429.54 C622.25,421.74 622.02,419.05 622.01,368.33 C622.01,342.39 621.73,320.45 621.39,319.58 C620.91,318.33 619.18,318.00 613.14,317.98 C608.94,317.98 604.92,317.60 604.21,317.15 C603.28,316.56 603.00,313.97 603.21,307.91 L 603.50 299.50 L 621.50 298.50 L 622.50 264.50 L 634.75 264.22 L 647.00 263.94 L 647.00 280.91 C647.00,293.39 647.33,298.10 648.25,298.69 C648.94,299.14 654.13,299.39 659.79,299.25 L 670.08 298.99 L 669.50 317.50 L 647.50 318.50 L 647.23 360.00 C646.94,402.84 647.58,413.20 650.77,417.52 C653.35,421.02 656.33,422.00 664.37,422.00 L 671.65 422.00 L 672.90 430.13 C673.62,434.84 673.77,438.63 673.26,439.14 C672.77,439.63 669.25,440.69 665.44,441.50 ZM 798.56 421.51 C803.75,423.36 811.73,423.36 816.96,421.51 C822.07,419.71 828.02,413.71 830.87,407.49 C831.62,405.84 832.63,403.72 833.12,402.76 C833.60,401.81 834.00,399.47 834.00,397.57 C834.00,395.67 834.45,393.84 835.00,393.50 C836.42,392.63 836.30,351.29 834.87,345.26 C830.25,325.86 820.78,316.00 806.77,316.00 C799.60,316.00 794.66,317.96 789.71,322.79 C784.94,327.44 781.47,334.96 779.41,345.15 C778.13,351.45 777.89,357.33 778.24,373.31 C778.73,395.93 780.11,402.52 786.26,411.58 C790.00,417.10 793.03,419.54 798.56,421.51 ZM 312.02 389.25 L 312.00 440.00 L 286.00 440.00 L 286.00 370.11 C286.00,307.30 286.16,300.15 287.58,299.61 C288.45,299.27 293.80,299.00 299.48,299.00 L 309.79 299.00 L 310.50 308.00 C310.89,312.95 311.34,317.00 311.49,317.00 C312.12,317.00 320.00,308.93 320.03,308.25 C320.11,306.46 325.22,301.90 330.43,298.95 C335.43,296.13 336.76,295.81 342.02,296.19 C345.28,296.43 348.26,296.93 348.63,297.30 C349.01,297.67 348.67,303.04 347.88,309.24 L 346.46 320.50 L 339.15 320.20 C326.30,319.66 318.66,323.87 314.08,334.00 C312.12,338.33 312.04,340.38 312.02,389.25 ZM 724.00 299.00 L 724.00 440.00 L 698.00 440.00 L 698.00 371.08 C698.00,333.18 698.27,301.45 698.61,300.58 C699.12,299.26 701.23,299.00 711.61,299.00 ZM 523.66 422.57 C530.71,425.15 542.10,421.86 549.23,415.19 C556.62,408.27 557.10,406.67 556.78,389.93 L 556.50 375.50 L 526.17 375.50 L 521.86 378.53 C519.49,380.20 516.19,383.76 514.52,386.45 C511.88,390.72 511.46,392.43 511.16,400.02 C510.87,407.19 511.16,409.39 512.81,412.61 C515.39,417.63 518.86,420.82 523.66,422.57 ZM 388.36 354.51 C388.85,355.77 392.63,356.00 413.35,356.00 C439.19,356.00 440.97,355.68 439.60,351.30 C439.30,350.31 438.58,346.22 438.02,342.22 C436.92,334.38 432.80,324.99 428.84,321.30 C422.94,315.81 412.83,314.45 405.23,318.13 C400.12,320.60 394.94,327.11 392.06,334.67 C389.71,340.82 387.56,352.40 388.36,354.51 ZM 729.77 253.25 L 729.50 271.50 L 716.00 271.60 C708.58,271.66 701.02,271.52 699.22,271.29 L 695.93 270.87 L 696.58 253.68 C697.30,234.74 697.79,233.35 703.38,234.44 C704.96,234.75 711.60,235.00 718.15,235.00 L 730.05 235.00 Z" fill="rgb(231,33,42)"/>
<path d="M 0.00 290.50 L 0.00 0.00 L 522.00 0.00 L 1044.00 0.00 L 1044.00 290.50 L 1044.00 581.00 L 522.00 581.00 L 0.00 581.00 L 0.00 290.50 ZM 756.50 570.00 C756.50,567.56 756.32,567.50 749.00,567.46 C735.49,567.39 737.08,570.40 736.77,544.25 L 736.50 521.50 L 733.50 521.50 L 730.50 521.50 L 730.23 545.88 C730.04,563.31 730.30,570.65 731.13,571.66 C732.04,572.75 734.97,573.00 744.40,572.78 L 756.50 572.50 L 756.50 570.00 ZM 800.50 570.00 C800.50,567.53 800.37,567.49 790.50,567.00 L 780.50 566.50 L 780.23 543.69 L 779.96 520.87 L 777.37 521.19 L 774.78 521.50 L 774.86 547.00 C774.90,561.03 774.95,572.63 774.97,572.78 C774.99,572.93 780.74,572.93 787.75,572.78 L 800.50 572.50 L 800.50 570.00 ZM 191.00 568.17 C195.24,566.11 197.19,564.37 199.50,560.58 C202.12,556.28 202.54,554.54 202.85,546.81 C203.24,536.86 201.74,531.51 197.17,526.66 C192.51,521.71 189.36,520.68 177.47,520.21 C167.81,519.82 166.26,519.98 164.97,521.53 C163.83,522.91 163.44,527.33 163.19,541.40 C163.01,551.35 163.24,561.97 163.70,564.99 C164.46,570.05 164.76,570.53 167.51,571.04 C174.17,572.28 185.35,570.91 191.00,568.17 ZM 251.82 571.17 C252.58,571.07 253.00,570.05 252.82,568.75 C252.52,566.62 251.95,566.47 242.00,566.00 L 231.50 565.50 L 231.21 556.29 L 230.93 547.08 L 240.21 546.79 C248.74,546.52 249.50,546.34 249.50,544.50 C249.50,542.80 248.75,542.46 244.50,542.25 C241.75,542.12 237.59,541.75 235.25,541.44 L 231.00 540.88 L 231.00 532.97 L 231.00 525.07 L 241.75 524.78 C251.74,524.52 252.50,524.36 252.50,522.50 C252.50,520.64 251.73,520.48 241.50,520.20 C235.45,520.03 229.04,520.17 227.26,520.49 L 224.02 521.09 L 224.26 545.78 L 224.50 570.48 L 227.49 570.99 C230.20,571.45 248.63,571.59 251.82,571.17 ZM 295.08 569.86 C295.71,568.68 297.48,564.07 299.02,559.61 C300.55,555.15 304.30,544.42 307.34,535.77 C310.65,526.33 312.47,519.79 311.88,519.42 C308.44,517.30 304.00,522.12 304.00,527.99 C304.00,529.58 303.55,531.16 303.00,531.50 C302.45,531.84 302.00,533.00 302.00,534.07 C302.00,535.15 301.60,536.81 301.12,537.76 C299.95,540.05 298.48,543.69 296.98,548.00 C296.31,549.92 295.17,552.86 294.45,554.52 C293.72,556.17 292.61,558.87 291.97,560.52 L 290.82 563.50 L 289.49 560.00 C288.76,558.08 285.37,548.29 281.94,538.25 L 275.72 520.00 L 272.36 520.00 C270.51,520.00 269.00,520.31 269.00,520.68 C269.00,521.52 272.80,532.75 274.02,535.50 C274.50,536.60 275.57,539.53 276.40,542.00 C281.56,557.48 285.91,569.19 286.99,570.49 C288.89,572.78 293.71,572.40 295.08,569.86 ZM 358.25 571.10 C359.42,571.03 360.00,570.18 360.00,568.53 C360.00,566.08 359.93,566.07 349.25,565.78 L 338.50 565.50 L 338.21 556.29 L 337.93 547.08 L 347.21 546.79 C355.74,546.52 356.50,546.34 356.50,544.50 C356.50,542.80 355.75,542.46 351.50,542.25 C348.75,542.12 344.59,541.75 342.25,541.44 L 338.00 540.88 L 338.00 532.97 L 338.00 525.07 L 348.75 524.78 C358.74,524.52 359.50,524.36 359.50,522.50 C359.50,520.62 358.74,520.48 346.85,520.22 C336.36,519.99 333.93,520.21 332.61,521.53 C331.23,522.91 331.05,526.24 331.27,546.61 C331.46,563.62 331.86,570.30 332.74,570.84 C333.70,571.43 349.83,571.60 358.25,571.10 ZM 407.25 571.14 C407.66,571.06 408.00,569.88 408.00,568.50 C408.00,566.08 407.79,566.00 401.12,566.00 C397.34,566.00 392.85,565.72 391.14,565.38 L 388.04 564.76 L 387.77 542.14 C387.53,522.17 387.31,519.49 385.87,519.21 C383.52,518.76 380.71,521.89 381.67,523.88 C382.51,525.61 382.53,527.38 381.98,553.33 C381.71,566.36 381.92,570.33 382.93,570.96 C383.95,571.59 403.97,571.74 407.25,571.14 ZM 454.51 570.14 C456.71,569.13 459.96,566.67 461.72,564.67 C471.92,553.05 469.13,526.34 457.19,521.29 C451.99,519.09 440.59,519.08 434.91,521.27 C429.05,523.53 424.00,529.39 424.00,533.93 C424.00,535.00 423.55,536.16 423.00,536.50 C422.44,536.84 422.00,541.49 422.00,547.00 C422.00,552.51 422.44,557.16 423.00,557.50 C423.55,557.84 424.00,558.84 424.00,559.71 C424.00,562.50 429.11,568.15 433.38,570.09 C438.85,572.57 449.10,572.59 454.51,570.14 ZM 495.21 562.27 L 495.50 552.54 L 500.50 551.77 C503.25,551.35 506.97,550.75 508.77,550.45 C519.32,548.68 524.48,533.48 517.40,525.06 C514.28,521.35 509.69,520.01 500.08,520.01 C488.51,520.00 489.00,518.80 489.00,546.99 C489.00,560.01 489.30,570.97 489.67,571.33 C490.03,571.70 491.37,572.00 492.63,572.00 C494.85,572.00 494.94,571.67 495.21,562.27 ZM 569.25 571.12 C569.66,571.05 570.00,570.11 570.00,569.02 C570.00,566.52 567.66,565.98 558.00,566.27 C553.88,566.40 549.94,566.14 549.25,565.69 C548.40,565.14 548.00,562.00 548.00,555.94 L 548.00 547.00 L 557.57 547.00 C566.92,547.00 567.13,546.95 566.82,544.75 C566.54,542.80 565.83,542.47 561.50,542.25 C558.75,542.12 554.59,541.75 552.25,541.44 L 548.00 540.88 L 548.00 532.97 L 548.00 525.07 L 558.75 524.78 C569.04,524.51 569.51,524.40 569.82,522.25 C570.14,520.02 570.03,520.00 557.65,520.00 C550.78,520.00 544.45,520.27 543.58,520.61 C542.20,521.14 542.00,524.32 542.00,546.04 L 542.00 570.86 L 544.25 571.19 C546.25,571.49 567.35,571.43 569.25,571.12 ZM 597.75 561.99 C598.10,548.78 598.35,548.00 602.27,548.00 C609.04,548.01 612.12,551.65 619.44,568.25 C620.70,571.11 621.67,572.00 623.55,572.00 C625.06,572.00 626.00,571.43 626.00,570.51 C626.00,567.44 618.87,551.34 616.28,548.54 C614.19,546.29 613.91,545.53 615.04,545.16 C615.84,544.89 617.96,543.22 619.75,541.44 C622.49,538.71 623.00,537.46 623.00,533.55 C623.00,527.81 621.03,523.81 617.33,522.03 C613.41,520.15 595.46,519.38 593.49,521.01 C592.24,522.04 592.00,526.22 592.00,546.54 C592.00,571.58 592.09,572.18 596.00,571.67 C597.19,571.52 597.55,569.54 597.75,561.99 ZM 665.08 569.96 C670.16,567.37 672.99,562.78 673.00,557.15 C673.00,550.57 670.61,547.54 661.77,542.94 C652.09,537.90 650.00,535.76 650.00,530.87 C650.00,524.48 656.51,522.10 664.65,525.50 C669.47,527.51 670.00,527.41 670.00,524.54 C670.00,521.16 666.92,519.75 659.52,519.75 C648.85,519.75 643.63,523.90 643.55,532.48 C643.51,537.12 643.91,538.31 646.50,541.06 C648.15,542.82 652.65,545.73 656.50,547.53 C664.68,551.34 667.00,553.75 667.00,558.42 C667.00,565.43 658.66,568.97 650.35,565.50 C645.29,563.39 642.00,563.54 642.00,565.88 C642.00,571.49 656.91,574.13 665.08,569.96 ZM 823.79 561.82 L 824.07 552.14 L 829.79 551.53 C838.79,550.58 842.66,549.20 845.40,545.94 C852.76,537.18 849.89,523.73 840.07,521.00 C834.99,519.59 820.67,519.73 819.20,521.20 C817.87,522.53 817.41,570.07 818.71,571.38 C819.10,571.77 820.34,571.95 821.46,571.79 C823.33,571.52 823.52,570.69 823.79,561.82 ZM 221.50 440.69 C233.88,437.25 245.52,428.26 251.53,417.51 C255.36,410.66 258.57,399.03 259.33,389.25 C259.91,381.69 260.09,381.78 245.50,382.21 L 235.50 382.50 L 234.32 390.50 C232.14,405.24 231.02,408.52 226.35,413.85 C220.36,420.70 215.39,422.50 202.50,422.50 C193.59,422.50 191.95,422.21 187.44,419.83 C178.22,414.97 172.03,406.08 168.38,392.50 C166.68,386.19 166.50,381.51 166.51,345.00 C166.53,309.51 166.75,303.63 168.31,297.50 C171.95,283.14 177.38,274.95 186.41,270.19 C191.00,267.77 192.54,267.50 202.00,267.50 C211.48,267.50 213.00,267.76 217.62,270.20 C227.24,275.27 231.47,282.70 233.37,297.82 L 234.58 307.50 L 247.04 307.50 L 259.50 307.50 L 259.23 301.50 C258.26,279.72 248.78,262.39 233.39,254.26 C224.00,249.30 216.36,247.70 201.50,247.59 C186.81,247.49 181.99,248.49 171.75,253.77 C164.94,257.28 154.72,266.92 152.38,272.04 C151.76,273.40 150.32,276.52 149.18,279.00 C146.37,285.10 143.92,292.48 142.70,298.50 C141.17,306.07 140.63,377.68 142.02,388.24 C144.12,404.14 149.77,416.70 158.96,425.89 C167.99,434.91 174.81,438.38 191.50,442.42 C195.21,443.32 216.46,442.10 221.50,440.69 ZM 431.16 441.58 C435.20,440.81 440.72,439.21 443.43,438.04 C449.07,435.61 461.00,427.38 461.00,425.92 C461.00,424.50 454.21,411.25 453.14,410.59 C452.65,410.28 450.54,411.38 448.46,413.03 C433.61,424.83 411.99,426.31 400.88,416.27 C393.32,409.44 388.06,395.11 388.02,381.25 L 388.00 375.00 L 426.10 375.00 L 464.19 375.00 L 463.75 357.25 C463.26,337.77 462.16,332.03 456.80,321.00 C453.02,313.22 444.50,304.35 437.62,301.04 C428.19,296.51 414.92,294.89 405.26,297.09 C394.82,299.47 382.34,307.89 374.88,317.61 C372.51,320.69 367.47,330.10 366.63,333.00 C362.84,346.10 362.77,346.74 362.64,369.50 C362.48,395.99 363.29,401.44 369.16,413.24 C380.68,436.39 403.64,446.89 431.16,441.58 ZM 532.94 441.10 C540.21,438.83 544.72,435.73 551.59,428.25 L 556.68 422.70 L 558.50 431.35 L 560.31 440.00 L 573.68 440.00 C588.82,440.00 587.43,441.12 584.88,431.00 C584.16,428.16 583.49,408.59 583.06,378.00 C582.33,326.81 582.41,327.66 577.48,317.86 C575.24,313.42 565.16,303.62 560.33,301.20 C545.95,293.99 524.32,294.68 508.29,302.85 C506.13,303.95 501.70,307.72 498.43,311.22 C493.64,316.35 492.13,318.82 490.59,324.04 C489.54,327.59 488.64,332.30 488.59,334.50 L 488.50 338.50 L 500.46 338.50 L 512.41 338.50 L 513.19 334.73 C516.11,320.70 526.66,313.78 540.83,316.62 C545.28,317.51 551.42,323.20 554.41,329.20 C556.76,333.90 557.00,335.50 557.00,346.20 L 557.00 358.00 L 541.61 358.00 C528.53,358.00 525.04,358.34 518.30,360.30 C503.59,364.56 494.84,371.35 489.28,382.83 C485.57,390.50 485.57,390.51 485.61,403.50 C485.65,416.10 485.75,416.71 488.91,423.21 C490.73,426.96 493.95,431.53 496.21,433.57 C505.77,442.21 520.00,445.12 532.94,441.10 ZM 665.44 441.50 C669.25,440.69 672.77,439.63 673.26,439.14 C673.77,438.63 673.62,434.84 672.90,430.13 L 671.65 422.00 L 664.37 422.00 C656.33,422.00 653.35,421.02 650.77,417.52 C647.58,413.20 646.94,402.84 647.23,360.00 L 647.50 318.50 L 658.50 318.00 L 669.50 317.50 L 669.79 308.25 L 670.08 298.99 L 659.79 299.25 C654.13,299.39 648.94,299.14 648.25,298.69 C647.33,298.10 647.00,293.39 647.00,280.91 L 647.00 263.94 L 634.75 264.22 L 622.50 264.50 L 622.00 281.50 L 621.50 298.50 L 612.50 299.00 L 603.50 299.50 L 603.21 307.91 C603.00,313.97 603.28,316.56 604.21,317.15 C604.92,317.60 608.94,317.98 613.14,317.98 C619.18,318.00 620.91,318.33 621.39,319.58 C621.73,320.45 622.01,342.39 622.01,368.33 C622.02,419.05 622.25,421.74 627.24,429.54 C634.88,441.49 647.22,445.35 665.44,441.50 ZM 825.42 440.07 C841.69,434.35 852.74,421.54 859.16,401.00 C861.33,394.03 861.50,391.84 861.50,370.00 C861.50,343.50 860.85,339.56 854.14,325.50 C847.18,310.91 836.36,301.71 821.67,297.90 C804.89,293.54 784.62,297.55 773.21,307.49 C769.08,311.09 762.64,319.83 760.33,325.00 C756.34,333.89 755.58,335.86 754.93,339.00 C754.53,340.92 753.71,344.92 753.10,347.89 C751.75,354.49 751.75,385.64 753.10,392.50 C753.65,395.25 754.33,398.85 754.61,400.50 C755.23,404.03 755.78,405.51 759.46,413.49 C764.32,424.05 771.83,432.21 781.00,436.88 C785.82,439.33 788.61,440.27 797.50,442.42 C802.26,443.57 819.64,442.11 825.42,440.07 ZM 312.02 389.25 C312.04,340.38 312.12,338.33 314.08,334.00 C318.66,323.87 326.30,319.66 339.15,320.20 L 346.46 320.50 L 347.88 309.24 C348.67,303.04 349.01,297.67 348.63,297.30 C348.26,296.93 345.28,296.43 342.02,296.19 C336.76,295.81 335.43,296.13 330.43,298.95 C325.22,301.90 320.11,306.46 320.03,308.25 C320.00,308.93 312.12,317.00 311.49,317.00 C311.34,317.00 310.89,312.95 310.50,308.00 L 309.79 299.00 L 299.48 299.00 C293.80,299.00 288.45,299.27 287.58,299.61 C286.16,300.15 286.00,307.30 286.00,370.11 L 286.00 440.00 L 299.00 440.00 L 312.00 440.00 L 312.02 389.25 ZM 724.00 369.50 L 724.00 299.00 L 711.61 299.00 C701.23,299.00 699.12,299.26 698.61,300.58 C698.27,301.45 698.00,333.18 698.00,371.08 L 698.00 440.00 L 711.00 440.00 L 724.00 440.00 L 724.00 369.50 ZM 371.79 267.85 L 372.07 258.19 L 340.79 257.76 C307.27,257.29 304.77,256.95 293.88,251.44 C282.19,245.52 272.00,226.50 272.00,210.61 L 272.00 205.02 L 321.75 204.76 L 371.50 204.50 L 371.78 194.25 L 372.07 184.00 L 323.28 183.98 C296.45,183.98 273.87,183.57 273.10,183.08 C272.00,182.38 271.83,180.60 272.34,174.85 C274.22,153.32 283.88,139.69 301.49,133.70 C303.15,133.13 319.50,132.41 338.00,132.09 L 371.50 131.50 L 371.79 121.75 L 372.07 112.00 L 343.26 112.00 C297.81,112.00 285.44,114.39 271.08,125.94 C261.53,133.62 251.04,149.47 248.20,160.50 C247.63,162.70 246.71,166.30 246.15,168.50 C244.17,176.23 242.69,195.76 243.39,204.67 C244.35,216.79 245.94,226.52 248.26,234.50 C249.39,238.40 255.60,251.00 256.87,252.00 C257.22,252.27 258.75,254.16 260.27,256.20 C268.98,267.89 281.64,274.64 299.19,276.93 C302.66,277.39 320.35,277.70 338.50,277.63 L 371.50 277.50 L 371.79 267.85 ZM 424.76 226.75 L 425.02 176.00 L 429.26 176.03 C437.60,176.09 448.50,178.00 451.00,179.84 C455.50,183.15 456.90,187.54 456.95,198.55 C456.98,204.97 457.43,209.03 458.20,209.80 C458.97,210.57 462.93,211.00 469.31,211.00 L 479.21 211.00 L 478.75 195.75 C478.24,178.84 477.04,173.93 471.87,167.66 C464.77,159.04 453.45,156.69 421.50,157.20 L 402.50 157.50 L 402.24 217.78 L 401.98 278.07 L 413.24 277.78 L 424.50 277.50 L 424.76 226.75 ZM 605.48 229.50 L 605.46 181.50 L 603.10 175.59 C599.98,167.79 593.85,161.67 586.84,159.39 C582.23,157.88 576.15,157.59 542.14,157.24 C520.50,157.02 501.71,157.11 500.39,157.44 C498.11,158.01 498.00,158.41 498.00,166.44 L 498.00 174.84 L 533.25 175.17 L 568.50 175.50 L 573.46 178.00 C579.16,180.87 581.82,184.77 581.93,190.38 C581.97,192.52 582.54,196.06 583.19,198.26 C585.09,204.60 584.90,204.64 553.79,204.85 C524.47,205.05 517.27,205.82 509.93,209.54 C505.16,211.95 498.00,219.25 498.00,221.69 C498.00,222.43 497.55,223.92 497.00,225.01 C496.45,226.11 495.55,227.89 495.00,228.99 C494.45,230.08 494.00,235.92 494.00,241.96 C494.00,251.49 494.32,253.65 496.45,258.30 C499.20,264.31 506.24,271.36 511.79,273.69 C520.78,277.44 526.48,277.86 566.50,277.68 L 605.50 277.50 L 605.48 229.50 ZM 729.77 253.25 L 730.05 235.00 L 718.15 235.00 C711.60,235.00 704.96,234.75 703.38,234.44 C697.79,233.35 697.30,234.74 696.58,253.68 L 695.93 270.87 L 699.22 271.29 C701.02,271.52 708.58,271.66 716.00,271.60 L 729.50 271.50 L 729.77 253.25 ZM 776.00 252.50 L 776.00 234.00 L 760.75 234.02 C752.36,234.02 744.91,234.41 744.19,234.86 C743.17,235.51 742.92,239.54 743.09,252.60 C743.21,261.89 743.49,269.84 743.71,270.25 C743.94,270.66 751.29,271.00 760.06,271.00 L 776.00 271.00 L 776.00 252.50 ZM 836.46 269.39 C837.91,267.94 838.04,261.72 837.79,206.64 L 837.50 145.50 L 807.27 84.74 C775.68,21.24 768.97,8.59 766.04,7.02 C764.29,6.08 735.11,5.80 731.71,6.69 C730.39,7.04 730.09,7.73 730.59,9.33 C731.25,11.49 742.14,34.69 744.27,38.50 C744.89,39.60 752.40,54.45 760.98,71.50 C769.55,88.55 777.05,103.40 777.66,104.50 C778.27,105.60 779.21,107.62 779.76,109.00 C780.31,110.38 783.57,117.12 787.01,124.00 C790.45,130.88 794.49,138.98 795.98,142.00 C800.02,150.17 801.67,175.16 799.98,202.69 C798.42,228.26 798.94,267.02 800.87,269.35 C802.89,271.78 834.04,271.82 836.46,269.39 ZM 729.50 197.62 L 729.50 179.75 L 713.75 179.54 L 698.00 179.33 L 698.00 197.69 L 698.00 216.05 L 713.75 215.78 L 729.50 215.50 L 729.50 197.62 ZM 774.77 197.75 L 774.50 179.50 L 759.00 179.50 L 743.50 179.50 L 743.23 197.75 L 742.95 216.00 L 759.00 216.00 L 775.05 216.00 L 774.77 197.75 ZM 776.50 143.50 L 776.50 125.50 L 760.54 125.50 L 744.58 125.50 L 744.79 142.85 C744.91,152.39 745.26,160.61 745.58,161.12 C745.90,161.65 752.73,161.93 761.32,161.78 L 776.50 161.50 L 776.50 143.50 ZM 729.77 142.35 L 730.04 124.21 L 713.77 124.35 C701.44,124.46 697.52,124.80 697.60,125.75 C697.66,126.44 697.77,134.66 697.85,144.03 L 698.00 161.05 L 713.75 160.78 L 729.50 160.50 L 729.77 142.35 ZM 729.77 89.23 L 730.05 70.95 L 713.93 71.23 L 697.82 71.50 L 697.95 88.91 C698.02,98.49 698.32,106.72 698.62,107.19 C698.91,107.66 705.98,107.93 714.32,107.78 L 729.50 107.50 L 729.77 89.23 ZM 173.00 566.14 L 170.50 565.41 L 170.23 545.21 L 169.96 525.00 L 176.73 525.05 C184.76,525.10 189.09,526.96 193.25,532.15 C195.99,535.56 196.19,536.39 196.31,545.17 C196.48,557.08 194.74,561.35 188.66,564.01 C183.71,566.18 176.48,567.16 173.00,566.14 ZM 437.53 565.31 C430.76,561.65 428.70,557.09 428.59,545.50 C428.51,537.65 428.82,535.94 431.00,532.10 C433.90,526.99 438.80,524.00 444.27,524.00 C451.03,524.00 455.84,527.05 459.75,533.81 C461.26,536.42 461.47,554.59 460.00,555.50 C459.45,555.84 459.00,556.91 459.00,557.87 C459.00,560.07 454.40,564.53 450.68,565.94 C446.67,567.45 440.99,567.18 437.53,565.31 ZM 498.00 546.15 C495.64,545.46 495.48,544.97 495.20,537.46 C494.75,525.25 494.89,525.00 502.12,525.00 C507.63,525.00 508.47,525.29 511.10,528.11 C513.45,530.62 514.00,532.10 514.00,535.92 C514.00,539.75 513.49,541.12 511.25,543.26 C508.29,546.10 502.28,547.41 498.00,546.15 ZM 601.00 542.32 C598.56,541.31 598.03,539.81 598.02,533.83 C597.99,525.38 598.29,525.00 604.97,525.00 C613.11,525.00 616.00,527.37 616.00,534.05 C616.00,538.18 615.61,539.21 613.49,540.60 C610.81,542.35 603.50,543.36 601.00,542.32 ZM 826.25 545.97 C824.13,545.12 824.00,544.50 824.00,535.03 L 824.00 525.00 L 830.44 525.00 C839.20,525.00 842.11,527.36 842.34,534.62 C842.43,537.41 841.87,540.86 841.11,542.30 C838.93,546.37 831.69,548.16 826.25,545.97 ZM 388.36 354.51 C387.56,352.40 389.71,340.82 392.06,334.67 C394.94,327.11 400.12,320.60 405.23,318.13 C412.83,314.45 422.94,315.81 428.84,321.30 C432.80,324.99 436.92,334.38 438.02,342.22 C438.58,346.22 439.30,350.31 439.60,351.30 C440.97,355.68 439.19,356.00 413.35,356.00 C392.63,356.00 388.85,355.77 388.36,354.51 ZM 523.66 422.57 C518.86,420.82 515.39,417.63 512.81,412.61 C511.16,409.39 510.87,407.19 511.16,400.02 C511.46,392.43 511.88,390.72 514.52,386.45 C516.19,383.76 519.49,380.20 521.86,378.53 L 526.17 375.50 L 541.33 375.50 L 556.50 375.50 L 556.78 389.93 C557.10,406.67 556.62,408.27 549.23,415.19 C542.10,421.86 530.71,425.15 523.66,422.57 ZM 798.56 421.51 C793.03,419.54 790.00,417.10 786.26,411.58 C780.11,402.52 778.73,395.93 778.24,373.31 C777.89,357.33 778.13,351.45 779.41,345.15 C781.47,334.96 784.94,327.44 789.71,322.79 C794.66,317.96 799.60,316.00 806.77,316.00 C820.78,316.00 830.25,325.86 834.87,345.26 C836.30,351.29 836.42,392.63 835.00,393.50 C834.45,393.84 834.00,395.67 834.00,397.57 C834.00,399.47 833.60,401.81 833.12,402.76 C832.63,403.72 831.62,405.84 830.87,407.49 C828.02,413.71 822.07,419.71 816.96,421.51 C811.73,423.36 803.75,423.36 798.56,421.51 ZM 537.00 259.04 C522.27,257.62 515.83,250.51 517.46,237.48 C518.05,232.75 518.81,230.99 521.39,228.41 C523.15,226.65 526.37,224.71 528.55,224.11 C530.92,223.45 542.30,223.01 557.01,223.01 C580.69,223.00 581.56,223.07 582.81,225.06 C584.70,228.10 584.18,256.61 582.19,258.26 C580.61,259.57 548.30,260.13 537.00,259.04 Z" fill="rgb(254,254,253)"/>
</g>
</svg>